<svg width="22" height="13" viewBox="0 0 22 13" fill="none" xmlns="http://www.w3.org/2000/svg">
<g id="16">
<path id="Vector" d="M0.899767 1.51575C0.898025 1.21643 0.985449 0.923365 1.15089 0.673928C1.31633 0.424492 1.55229 0.229983 1.82869 0.115201C2.10508 0.000418247 2.4094 -0.0294374 2.70283 0.0294401C2.99626 0.0883176 3.26551 0.233261 3.47626 0.44579L11.4468 8.43283L19.4173 0.445791C19.7011 0.162019 20.0859 0.00259801 20.4871 0.00259802C20.6858 0.00259803 20.8825 0.0417367 21.0661 0.11778C21.2496 0.193823 21.4164 0.305281 21.5569 0.445791C21.6974 0.5863 21.8088 0.753108 21.8848 0.936692C21.9609 1.12028 22 1.31704 22 1.51575C22 1.91707 21.8406 2.30194 21.5569 2.58571L12.5166 11.6276C12.2343 11.9083 11.8524 12.0659 11.4543 12.0659C11.0563 12.0659 10.6744 11.9083 10.3921 11.6276L1.35178 2.58571C1.20941 2.44614 1.09616 2.2797 1.01856 2.09604C0.940973 1.91237 0.900595 1.71514 0.899767 1.51575Z" fill="#272932"/>
</g>
</svg>
