<svg width="22" height="13" viewBox="0 0 22 13" fill="none" xmlns="http://www.w3.org/2000/svg">
<g id="15">
<path id="Vector" d="M22 10.6359C22.0018 10.9352 21.9143 11.2282 21.7489 11.4777C21.5835 11.7271 21.3475 11.9216 21.0711 12.0364C20.7947 12.1512 20.4904 12.181 20.197 12.1222C19.9035 12.0633 19.6343 11.9183 19.4235 11.7058L11.453 3.71878L3.48244 11.7058C3.19871 11.9896 2.81391 12.149 2.41266 12.149C2.21399 12.149 2.01726 12.1099 1.83371 12.0338C1.65016 11.9578 1.48338 11.8463 1.34289 11.7058C1.20241 11.5653 1.09097 11.3985 1.01494 11.2149C0.938913 11.0313 0.89978 10.8346 0.89978 10.6359C0.89978 10.2345 1.05917 9.84967 1.34289 9.5659L10.3832 0.52397C10.6655 0.243292 11.0474 0.0857492 11.4454 0.0857492C11.8435 0.0857491 12.2254 0.243292 12.5077 0.52397L21.548 9.5659C21.6904 9.70547 21.8036 9.87191 21.8812 10.0556C21.9588 10.2392 21.9992 10.4365 22 10.6359Z" fill="#272932"/>
</g>
</svg>
