<svg width="100" height="35" viewBox="0 0 100 35" fill="none" xmlns="http://www.w3.org/2000/svg">
<g id="Logo">
<g id="Group">
<path id="Vector" d="M49.1255 0.565002H54.5625L51.9317 28.2107H47.7926L37.5501 11.3005L35.9365 28.2107H30.4996L33.1304 0.565002H37.2695L47.512 17.405L49.1255 0.565002Z" fill="#272932"/>
</g>
<g id="Group_2">
<path id="Vector_2" d="M65.7872 28.7545C63.0511 28.7545 60.8062 28.1406 59.0523 26.9127C57.2985 25.6847 56.1409 24.0183 55.5797 21.9133L60.508 19.1943C61.3148 22.0185 63.2967 23.4219 66.4712 23.4219C67.997 23.4219 69.137 23.1412 69.9087 22.5974C70.6804 22.0361 71.1013 21.352 71.1715 20.51C71.2592 19.5276 70.9084 18.7733 70.0841 18.2471C69.2598 17.7033 67.769 17.1244 65.5942 16.4929C64.3841 16.1245 63.3844 15.7562 62.5601 15.3878C61.7357 15.0194 60.929 14.5282 60.1397 13.9143C59.3505 13.3003 58.7717 12.5109 58.4034 11.5637C58.0526 10.6164 57.9299 9.51132 58.0526 8.24831C58.2982 5.73985 59.368 3.75764 61.2797 2.2666C63.1739 0.740474 65.3838 0.00372314 67.8918 0.00372314C70.1367 0.00372314 72.0484 0.547515 73.6444 1.6351C75.2404 2.72268 76.4155 4.24881 77.1872 6.19594L72.3466 8.84473C71.4696 6.4766 69.821 5.28377 67.4007 5.28377C66.2607 5.28377 65.3487 5.5469 64.6647 6.0556C63.9631 6.56431 63.5773 7.2309 63.5071 8.05536C63.4194 8.93244 63.7176 9.63411 64.3841 10.1604C65.0505 10.7042 66.3835 11.283 68.3829 11.9145C69.2072 12.1777 69.821 12.3882 70.2419 12.5285C70.6629 12.6688 71.2416 12.8969 71.9607 13.1951C72.6798 13.4933 73.241 13.7739 73.6094 14.0371C73.9952 14.3002 74.4337 14.651 74.9072 15.1071C75.3983 15.5632 75.7491 16.0193 75.9771 16.4929C76.2051 16.9665 76.398 17.5454 76.5207 18.212C76.6611 18.8786 76.6786 19.6153 76.6084 20.4047C76.3629 22.9658 75.2404 24.9831 73.241 26.4917C71.2592 28.0178 68.7687 28.7545 65.7872 28.7545Z" fill="#272932"/>
</g>
<g id="Group_3">
<path id="Vector_3" fill-rule="evenodd" clip-rule="evenodd" d="M90.271 14.0196L86.0793 5.65218H90.9374C92.095 5.65218 93.0245 6.05564 93.7085 6.84501C94.3925 7.63439 94.6907 8.63426 94.5679 9.84464C94.4627 11.0375 93.9716 12.0198 93.1473 12.8267C92.323 13.5986 91.3759 14.002 90.271 14.0196ZM80.6248 5.65218L84.8165 14.0196H79.818L78.4675 28.1932H83.922L84.7814 19.1067H89.6396C92.3055 19.1067 94.6205 18.212 96.6024 16.4228C98.5843 14.6335 99.7067 12.4408 99.9523 9.8271C100.198 7.21339 99.4963 5.02068 97.8476 3.23142C96.199 1.44217 94.0418 0.547546 91.3934 0.547546H81.0808L80.6248 5.65218Z" fill="#272932"/>
</g>
<g id="Group_4">
<path id="Vector_4" d="M33.0602 31.2457C33.3233 31.4562 33.4461 31.7544 33.4461 32.1228C33.4461 32.4561 33.3759 32.7543 33.2181 32.9823C33.0602 33.2104 32.8498 33.4033 32.5691 33.5437C32.2885 33.6665 31.9553 33.7366 31.5694 33.7366H30.6048L30.3768 34.8768H29.6402L30.4294 30.9299H31.9553C32.4288 30.9299 32.7971 31.0352 33.0602 31.2457ZM32.4288 32.8946C32.6218 32.7367 32.727 32.5087 32.727 32.2105C32.727 32 32.6568 31.8421 32.5165 31.7369C32.3762 31.6316 32.1658 31.579 31.8851 31.579H31.0433L30.7276 33.1402H31.6045C31.9553 33.1227 32.2359 33.0525 32.4288 32.8946Z" fill="#272932"/>
<path id="Vector_5" d="M39.5846 33.9647H37.6027L37.0415 34.8768H36.2523L38.8129 30.9299H39.532L40.5141 34.8768H39.795L39.5846 33.9647ZM39.4443 33.4033L39.0409 31.6667L37.9535 33.4033H39.4443Z" fill="#272932"/>
<path id="Vector_6" d="M46.0738 33.5433L45.8108 34.894H45.0917L45.3723 33.4907L44.3375 30.9471H45.0566L45.8283 32.8767L47.3892 30.9471H48.1609L46.0738 33.5433Z" fill="#272932"/>
<path id="Vector_7" d="M56.2287 30.9298L55.4394 34.8767H54.7379L55.2465 32.2805L53.5628 34.4206H53.2296L52.3351 32.2279L51.809 34.8591H51.1074L51.8967 30.9122H52.493L53.5277 33.5435L55.5798 30.9122H56.2287V30.9298Z" fill="#272932"/>
<path id="Vector_8" d="M61.2271 31.5611L61.0167 32.5961H62.9284L62.8056 33.1925H60.8939L60.6834 34.2801H62.9108L62.7881 34.894H59.824L60.6133 30.9471H63.4896L63.3668 31.5611H61.2271Z" fill="#272932"/>
<path id="Vector_9" d="M71.2241 30.9299L70.4349 34.8768H69.8386L68.225 32.1052L67.6638 34.8768H66.9447L67.7339 30.9299H68.3302L69.9613 33.7015L70.505 30.9299H71.2241Z" fill="#272932"/>
<path id="Vector_10" d="M76.2927 31.5611H74.9774L75.1001 30.9471H78.45L78.3272 31.5611H77.0118L76.3454 34.894H75.6087L76.2927 31.5611Z" fill="#272932"/>
<path id="Vector_11" d="M81.9226 34.8065C81.642 34.7188 81.4315 34.6135 81.2737 34.4732L81.5894 33.8943C81.7472 34.0346 81.9577 34.1223 82.1857 34.2101C82.4137 34.2978 82.6417 34.3328 82.8872 34.3328C83.1854 34.3328 83.4134 34.2802 83.5712 34.175C83.7466 34.0697 83.8343 33.9469 83.8343 33.7715C83.8343 33.6663 83.7992 33.5961 83.7291 33.5259C83.6589 33.4558 83.5712 33.4031 83.466 33.368C83.3608 33.333 83.2205 33.2803 83.0275 33.2277C82.7645 33.1575 82.5715 33.0874 82.4137 33.0172C82.2558 32.947 82.1155 32.8418 82.0103 32.7015C81.9051 32.5611 81.8349 32.3857 81.8349 32.1577C81.8349 31.8945 81.9051 31.684 82.0454 31.4911C82.1857 31.2981 82.3961 31.1578 82.6592 31.0525C82.9223 30.9473 83.2205 30.8947 83.5537 30.8947C83.8168 30.8947 84.0448 30.9297 84.2728 30.9824C84.5008 31.035 84.6937 31.1227 84.8691 31.2279L84.5885 31.8068C84.4482 31.7016 84.2728 31.6314 84.0974 31.5788C83.9045 31.5262 83.7291 31.5086 83.5186 31.5086C83.2205 31.5086 82.9925 31.5612 82.8171 31.6665C82.6417 31.7717 82.554 31.9121 82.554 32.0875C82.554 32.1927 82.5891 32.2805 82.6592 32.3331C82.7294 32.4032 82.8171 32.4559 82.9223 32.491C83.0275 32.526 83.1678 32.5787 83.3608 32.6488C83.6063 32.719 83.8168 32.7892 83.9746 32.8593C84.1325 32.9295 84.2728 33.0348 84.378 33.1575C84.4832 33.2979 84.5359 33.4558 84.5359 33.6663C84.5359 33.9294 84.4657 34.1574 84.3254 34.3504C84.1851 34.5433 83.9746 34.6837 83.7115 34.7889C83.4485 34.8942 83.1503 34.9468 82.7995 34.9468C82.5014 34.9468 82.2032 34.8942 81.9226 34.8065Z" fill="#272932"/>
</g>
<g id="Group_5">
<path id="Vector_12" fill-rule="evenodd" clip-rule="evenodd" d="M9.24282 22.0537H12.7856H14.5921C15.697 22.0537 16.6616 21.5099 17.2053 20.5451L17.2404 20.4925C17.8016 19.5277 17.8016 18.4401 17.2404 17.4753L16.3459 15.9141L14.557 12.8443L18.0998 6.70471L21.6426 12.8443L22.5371 14.4055C24.1857 17.2648 24.1857 20.703 22.5371 23.5623L22.502 23.6149C20.8533 26.4742 17.8718 28.1933 14.557 28.1933H5.66496H3.49017L0 25.141L3.50771 22.0712H5.68249L9.24282 22.0537Z" fill="#1E4FFD"/>
</g>
<g id="Group_6">
<path id="Vector_13" fill-rule="evenodd" clip-rule="evenodd" d="M17.5736 0.565074L23.3087 0.582616L26.8164 3.66995L23.3087 6.73975H21.1339H18.5382H17.5912L14.0484 6.72221H12.2419C11.137 6.72221 10.2074 7.24846 9.64619 8.19571C9.64619 8.21325 9.62866 8.21325 9.62866 8.23079L9.5585 8.24833C9.5585 8.26587 9.54096 8.26587 9.54096 8.28342C8.99727 9.23067 8.99727 10.3183 9.5585 11.2655L10.453 12.8267L12.2244 15.8965L8.66403 22.0361L5.12125 15.8965L4.20924 14.3353C2.56062 11.476 2.57815 8.02029 4.22678 5.17854L4.26186 5.12591C5.92802 2.26662 8.90957 0.547533 12.2068 0.565074H17.5736Z" fill="#1E4FFD"/>
</g>
</g>
</svg>
