<svg width="93" height="28" viewBox="0 0 93 28" fill="none" xmlns="http://www.w3.org/2000/svg">
<g id="Group">
<g id="Clip path group">
<mask id="mask0_11_357" style="mask-type:luminance" maskUnits="userSpaceOnUse" x="0" y="0" width="93" height="28">
<g id="SVGID_2_">
<path id="Vector" d="M92.4576 0.130371H0.646484V27.0332H92.4576V0.130371Z" fill="white"/>
</g>
</mask>
<g mask="url(#mask0_11_357)">
<path id="Vector_2" d="M0.646973 16.2031H5.66927C7.9683 16.2031 10.3145 16.6978 10.3145 19.1579C10.3145 20.0911 9.79458 21.0101 8.75598 21.3069V21.3916C10.0468 21.8023 10.8655 22.6501 10.8655 23.9228C10.8655 26.1138 8.59819 26.8634 6.51968 26.8634H0.646973V16.2031ZM5.03938 20.3032C5.66927 20.3032 6.37805 20.247 6.37805 19.5116C6.37805 18.7201 5.57485 18.777 4.94561 18.777H4.64619V20.3032H5.03938ZM4.64619 24.3186H5.1338C5.84259 24.3186 6.86632 24.3044 6.86632 23.4274C6.86632 22.5369 5.76433 22.5511 5.07171 22.5511H4.64619V24.3186Z" fill="#144D8A"/>
</g>
</g>
<g id="Clip path group_2">
<mask id="mask1_11_357" style="mask-type:luminance" maskUnits="userSpaceOnUse" x="0" y="0" width="93" height="28">
<g id="SVGID_2__2">
<path id="Vector_3" d="M92.4576 0.130371H0.646484V27.0332H92.4576V0.130371Z" fill="white"/>
</g>
</mask>
<g mask="url(#mask1_11_357)">
<path id="Vector_4" d="M11.5566 16.2031H20.2651V19.1153H16.2976V20.1338H19.9217V22.9049H16.2976V23.9507H20.4022V26.8634H11.5566V16.2031Z" fill="#144D8A"/>
</g>
</g>
<g id="Clip path group_3">
<mask id="mask2_11_357" style="mask-type:luminance" maskUnits="userSpaceOnUse" x="0" y="0" width="93" height="28">
<g id="SVGID_2__3">
<path id="Vector_5" d="M92.4576 0.130371H0.646484V27.0332H92.4576V0.130371Z" fill="white"/>
</g>
</mask>
<g mask="url(#mask2_11_357)">
<path id="Vector_6" d="M26.3859 16.2031L28.0091 18.9892H28.1637C28.3183 18.649 28.4534 18.3101 28.6468 17.9842L29.6899 16.2031H35.6422L30.6567 22.2692V26.8634H25.4773V22.2692L20.3955 16.2031H26.3859Z" fill="#144D8A"/>
</g>
</g>
<g id="Clip path group_4">
<mask id="mask3_11_357" style="mask-type:luminance" maskUnits="userSpaceOnUse" x="0" y="0" width="93" height="28">
<g id="SVGID_2__4">
<path id="Vector_7" d="M92.4576 0.130371H0.646484V27.0332H92.4576V0.130371Z" fill="white"/>
</g>
</mask>
<g mask="url(#mask3_11_357)">
<path id="Vector_8" d="M50.6212 21.5612C50.6212 24.9836 46.7403 27.033 41.9663 27.033C37.193 27.033 33.3115 24.9836 33.3115 21.5612C33.3115 18.21 37.2137 16.0332 41.9663 16.0332C46.7196 16.0332 50.6212 18.21 50.6212 21.5612ZM39.04 21.6181C39.04 22.8346 40.2442 23.6682 41.9663 23.6682C43.6892 23.6682 44.8933 22.8346 44.8933 21.6181C44.8933 20.4877 43.7719 19.5396 41.9663 19.5396C40.1608 19.5396 39.04 20.4877 39.04 21.6181Z" fill="#144D8A"/>
</g>
</g>
<g id="Clip path group_5">
<mask id="mask4_11_357" style="mask-type:luminance" maskUnits="userSpaceOnUse" x="0" y="0" width="93" height="28">
<g id="SVGID_2__5">
<path id="Vector_9" d="M92.4576 0.130371H0.646484V27.0332H92.4576V0.130371Z" fill="white"/>
</g>
</mask>
<g mask="url(#mask4_11_357)">
<path id="Vector_10" d="M69.0762 16.2036H78.0621C86.2099 16.2036 92.4577 17.7725 92.4577 21.6896C92.4577 24.8565 87.3695 26.8632 80.2518 26.8632H69.0762V16.2036ZM77.9004 23.6685H78.4475C81.3791 23.6685 83.6335 23.0748 83.6335 21.6747C83.6335 20.1763 81.6688 19.54 78.4475 19.54H77.9004V23.6685Z" fill="#144D8A"/>
</g>
</g>
<g id="Clip path group_6">
<mask id="mask5_11_357" style="mask-type:luminance" maskUnits="userSpaceOnUse" x="0" y="0" width="93" height="28">
<g id="SVGID_2__6">
<path id="Vector_11" d="M92.4576 0.130371H0.646484V27.0332H92.4576V0.130371Z" fill="white"/>
</g>
</mask>
<g mask="url(#mask5_11_357)">
<path id="Vector_12" d="M57.1627 16.2109H51.3281V26.8712H57.1407V21.448L62.2878 26.8712H68.101V16.2109H62.2878V21.7357L57.1627 16.2109Z" fill="#144D8A"/>
</g>
</g>
<g id="Clip path group_7">
<mask id="mask6_11_357" style="mask-type:luminance" maskUnits="userSpaceOnUse" x="0" y="0" width="93" height="28">
<g id="SVGID_2__7">
<path id="Vector_13" d="M92.4576 0.130371H0.646484V27.0332H92.4576V0.130371Z" fill="white"/>
</g>
</mask>
<g mask="url(#mask6_11_357)">
<path id="Vector_14" d="M2.43074 2.29038H2.92482C4.59655 2.29038 5.96497 2.62794 5.96497 4.61269C5.96497 6.63494 4.57779 6.9725 2.88666 6.9725H2.43074V2.29038ZM2.43074 8.3765H3.53272C5.12426 8.3765 7.17366 8.7891 7.17366 10.7771C7.17366 12.7831 5.44696 13.2701 3.79657 13.2701H2.43074V8.3765ZM0.646484 14.8429H3.98606C6.50949 14.8429 8.95726 13.7195 8.95726 10.889C8.95726 9.2392 7.78026 7.60886 6.09237 7.3088V7.2713C7.05854 6.82184 7.62376 5.62415 7.62376 4.59394C7.62376 1.41087 5.09063 0.718262 2.39258 0.718262H0.646484V14.8429Z" fill="#144D8A"/>
</g>
</g>
<g id="Clip path group_8">
<mask id="mask7_11_357" style="mask-type:luminance" maskUnits="userSpaceOnUse" x="0" y="0" width="93" height="28">
<g id="SVGID_2__8">
<path id="Vector_15" d="M92.4576 0.130371H0.646484V27.0332H92.4576V0.130371Z" fill="white"/>
</g>
</mask>
<g mask="url(#mask7_11_357)">
<path id="Vector_16" d="M9.99072 0.719238H17.6697V2.33213H11.7743V6.29318H17.4996V7.90607H11.7743V13.2291H17.6697V14.8419H9.99072V0.719238Z" fill="#144D8A"/>
</g>
</g>
<g id="Clip path group_9">
<mask id="mask8_11_357" style="mask-type:luminance" maskUnits="userSpaceOnUse" x="0" y="0" width="93" height="28">
<g id="SVGID_2__9">
<path id="Vector_17" d="M92.4576 0.130371H0.646484V27.0332H92.4576V0.130371Z" fill="white"/>
</g>
</mask>
<g mask="url(#mask8_11_357)">
<path id="Vector_18" d="M21.1207 2.33209H21.746C25.3863 2.33209 28.5345 3.66236 28.5345 7.78122C28.5345 11.8813 25.3863 13.2291 21.746 13.2291H21.1207V2.33209ZM19.3364 14.8419H22.2388C26.7515 14.8419 30.3181 12.5177 30.3181 7.70556C30.3181 3.00662 26.6759 0.719238 22.2957 0.719238H19.3364V14.8419Z" fill="#144D8A"/>
</g>
</g>
<g id="Clip path group_10">
<mask id="mask9_11_357" style="mask-type:luminance" maskUnits="userSpaceOnUse" x="0" y="0" width="93" height="28">
<g id="SVGID_2__10">
<path id="Vector_19" d="M92.4576 0.130371H0.646484V27.0332H92.4576V0.130371Z" fill="white"/>
</g>
</mask>
<g mask="url(#mask9_11_357)">
<path id="Vector_20" d="M37.1181 2.29038H37.6122C39.2839 2.29038 40.6523 2.62794 40.6523 4.61269C40.6523 6.63494 39.2651 6.9725 37.574 6.9725H37.1181V2.29038ZM37.1181 8.3765H38.2201C39.8122 8.3765 41.861 8.7891 41.861 10.7771C41.861 12.7831 40.1343 13.2701 38.4839 13.2701H37.1181V8.3765ZM35.3345 14.8429H38.674C41.1968 14.8429 43.6446 13.7195 43.6446 10.889C43.6446 9.2392 42.4689 7.60886 40.7797 7.3088V7.2713C41.7465 6.82184 42.3117 5.62415 42.3117 4.59394C42.3117 1.41087 39.7786 0.718262 37.0806 0.718262H35.3345V14.8429Z" fill="#144D8A"/>
</g>
</g>
<g id="Clip path group_11">
<mask id="mask10_11_357" style="mask-type:luminance" maskUnits="userSpaceOnUse" x="0" y="0" width="93" height="28">
<g id="SVGID_2__11">
<path id="Vector_21" d="M92.4576 0.130371H0.646484V27.0332H92.4576V0.130371Z" fill="white"/>
</g>
</mask>
<g mask="url(#mask10_11_357)">
<path id="Vector_22" d="M52.9173 9.69721H47.8355L50.3758 3.98681L52.9173 9.69721ZM53.6565 11.3101L55.2868 14.8437H57.2023L50.3758 0.129883L43.5498 14.8437H45.4647L47.0957 11.3101H53.6565Z" fill="#144D8A"/>
</g>
</g>
<g id="Clip path group_12">
<mask id="mask11_11_357" style="mask-type:luminance" maskUnits="userSpaceOnUse" x="0" y="0" width="93" height="28">
<g id="SVGID_2__12">
<path id="Vector_23" d="M92.4576 0.130371H0.646484V27.0332H92.4576V0.130371Z" fill="white"/>
</g>
</mask>
<g mask="url(#mask11_11_357)">
<path id="Vector_24" d="M60.3424 14.8438H58.5581V2.33209H55.1655V0.719238H63.7356V2.33209H60.3424V14.8438Z" fill="#144D8A"/>
</g>
</g>
<g id="Clip path group_13">
<mask id="mask12_11_357" style="mask-type:luminance" maskUnits="userSpaceOnUse" x="0" y="0" width="93" height="28">
<g id="SVGID_2__13">
<path id="Vector_25" d="M92.4576 0.130371H0.646484V27.0332H92.4576V0.130371Z" fill="white"/>
</g>
</mask>
<g mask="url(#mask12_11_357)">
<path id="Vector_26" d="M73.2934 6.41861V0.717285H75.0777V14.8439H73.2934V8.05739H66.4823V14.8439H64.6987V0.717285H66.4823V6.41861H73.2934Z" fill="#144D8A"/>
</g>
</g>
<g id="Clip path group_14">
<mask id="mask13_11_357" style="mask-type:luminance" maskUnits="userSpaceOnUse" x="0" y="0" width="93" height="28">
<g id="SVGID_2__14">
<path id="Vector_27" d="M92.4576 0.130371H0.646484V27.0332H92.4576V0.130371Z" fill="white"/>
</g>
</mask>
<g mask="url(#mask13_11_357)">
<path id="Vector_28" d="M82.6423 7.97772L85.76 11.7454C84.8863 12.6126 83.8393 13.5905 82.531 13.5905C81.1846 13.5905 79.9132 12.3539 79.9132 11.0256C79.9132 9.69537 81.5021 8.75377 82.4741 8.08832L82.6423 7.97772ZM83.0096 5.79767L82.5407 5.20725C82.1281 4.68989 81.6961 4.17317 81.6961 3.47085C81.6961 2.58357 82.4289 1.99311 83.2728 1.99311C84.2112 1.99311 84.9238 2.52859 84.9238 3.50772C84.9238 4.52368 83.9486 5.09602 83.2359 5.65024L83.0096 5.79767ZM88.3339 14.8483H90.501L87.9789 11.7642L89.6978 9.76843L88.5771 8.62312L86.9325 10.5076L84.0042 6.99863C85.1838 6.14884 86.5581 5.09602 86.5581 3.5258C86.5581 1.69889 85.0351 0.629883 83.3103 0.629883C81.4549 0.629883 80.0619 1.75384 80.0619 3.67389C80.0619 4.85544 80.805 5.89015 81.6037 6.72181L80.7306 7.34914C79.3932 8.31272 78.2783 9.27243 78.2783 11.0437C78.2783 13.443 80.2314 15.1412 82.5847 15.1412C84.248 15.1412 85.7426 14.1996 86.8083 12.9631L88.3339 14.8483Z" fill="#144D8A"/>
</g>
</g>
</g>
</svg>
