<svg width="167" height="37" viewBox="0 0 167 37" fill="none" xmlns="http://www.w3.org/2000/svg">
<g id="Group 3">
<path id="Vector" d="M69.3025 8.03121V29.3551H65.6004V12.6218H65.5511L58.9367 29.3551H56.4687L49.7062 12.6218H49.6569V29.3551H46.251V8.03121H51.5819L57.7027 23.8267H57.8014L64.2677 8.03121H69.3025ZM72.3629 9.66011C72.3629 9.06778 72.5603 8.57418 73.0045 8.17929C73.4488 7.7844 73.9424 7.58696 74.5347 7.58696C75.1764 7.58696 75.7194 7.7844 76.1143 8.17929C76.5092 8.57418 76.756 9.06778 76.756 9.66011C76.756 10.2524 76.5585 10.7461 76.1143 11.1409C75.67 11.5358 75.1764 11.7333 74.5347 11.7333C73.893 11.7333 73.3994 11.5358 73.0045 11.1409C72.6097 10.6967 72.3629 10.2031 72.3629 9.66011ZM76.3611 14.0532V29.3551H72.7577V14.0532H76.3611ZM87.2698 26.739C87.8128 26.739 88.4051 26.6402 89.0468 26.3441C89.6885 26.0973 90.2808 25.7517 90.8238 25.3569V28.7134C90.2315 29.0589 89.5898 29.3057 88.8494 29.4538C88.109 29.6019 87.3192 29.7006 86.4307 29.7006C84.1601 29.7006 82.3337 29.0096 80.9516 27.5781C79.5202 26.1466 78.8291 24.3203 78.8291 22.1484C78.8291 19.6804 79.5695 17.6566 81.001 16.077C82.4325 14.4975 84.4563 13.7077 87.1217 13.7077C87.8128 13.7077 88.5038 13.8064 89.1455 13.9545C89.8366 14.1026 90.3796 14.3494 90.7744 14.5468V18.0021C90.2315 17.6072 89.6391 17.2617 89.0962 17.0642C88.5038 16.8668 87.9115 16.7187 87.3192 16.7187C85.8877 16.7187 84.7524 17.163 83.8639 18.1008C82.9754 19.0387 82.5805 20.2727 82.5805 21.8522C82.5805 23.3824 83.0248 24.6164 83.8639 25.4556C84.7031 26.2947 85.8384 26.739 87.2698 26.739ZM101.041 13.8064C101.338 13.8064 101.584 13.8064 101.831 13.8558C102.078 13.9051 102.276 13.9545 102.424 14.0039V17.6566C102.226 17.5085 101.979 17.3604 101.584 17.2617C101.19 17.163 100.795 17.0642 100.252 17.0642C99.3632 17.0642 98.6228 17.4591 98.0305 18.1995C97.4382 18.9399 97.0926 20.0752 97.0926 21.6548V29.3551H93.4893V14.0532H97.0926V16.4719H97.142C97.4875 15.6328 97.9811 14.9911 98.6228 14.4975C99.3139 14.0532 100.104 13.8064 101.041 13.8064ZM102.621 21.951C102.621 19.4336 103.361 17.4098 104.744 15.9289C106.175 14.4481 108.149 13.7077 110.667 13.7077C113.036 13.7077 114.912 14.3988 116.245 15.8302C117.577 17.2617 118.268 19.1868 118.268 21.6054C118.268 24.0735 117.528 26.0479 116.146 27.5287C114.714 29.0096 112.789 29.75 110.321 29.75C107.952 29.75 106.076 29.0589 104.694 27.6768C103.312 26.2453 102.621 24.3203 102.621 21.951ZM106.372 21.8029C106.372 23.3824 106.718 24.6164 107.458 25.4556C108.199 26.2947 109.235 26.739 110.568 26.739C111.852 26.739 112.888 26.3441 113.579 25.4556C114.27 24.6164 114.616 23.3824 114.616 21.7042C114.616 20.0752 114.27 18.8412 113.579 17.9527C112.888 17.1136 111.852 16.6694 110.618 16.6694C109.285 16.6694 108.298 17.1136 107.557 18.0021C106.718 18.9399 106.372 20.174 106.372 21.8029ZM123.649 18.1008C123.649 18.5944 123.797 19.0387 124.142 19.3348C124.488 19.631 125.179 19.9765 126.314 20.4208C127.746 21.0131 128.782 21.6548 129.325 22.3458C129.918 23.0863 130.214 23.9254 130.214 24.962C130.214 26.3934 129.671 27.5287 128.535 28.4172C127.45 29.3057 125.919 29.7006 124.044 29.7006C123.402 29.7006 122.711 29.6019 121.921 29.4538C121.131 29.3057 120.49 29.1083 119.947 28.8615V25.3075C120.588 25.7517 121.329 26.1466 122.069 26.3934C122.81 26.6402 123.501 26.7883 124.142 26.7883C124.932 26.7883 125.574 26.6896 125.919 26.4428C126.314 26.196 126.512 25.8505 126.512 25.3075C126.512 24.8139 126.314 24.419 125.919 24.0241C125.524 23.6786 124.735 23.2837 123.649 22.8395C122.316 22.2965 121.378 21.6548 120.835 20.9637C120.292 20.2727 119.996 19.3842 119.996 18.2983C119.996 16.9162 120.539 15.7809 121.625 14.8924C122.711 14.0039 124.142 13.5596 125.87 13.5596C126.413 13.5596 127.005 13.609 127.647 13.7571C128.289 13.9051 128.881 14.0532 129.325 14.2013V17.7059C128.832 17.4098 128.289 17.1136 127.647 16.8668C127.005 16.62 126.364 16.5213 125.771 16.5213C125.08 16.5213 124.537 16.6694 124.192 16.9162C123.846 17.2617 123.649 17.6072 123.649 18.1008ZM131.744 21.951C131.744 19.4336 132.484 17.4098 133.866 15.9289C135.298 14.4481 137.272 13.7077 139.79 13.7077C142.159 13.7077 144.035 14.3988 145.368 15.8302C146.7 17.2617 147.391 19.1868 147.391 21.6054C147.391 24.0735 146.651 26.0479 145.269 27.5287C143.837 29.0096 141.912 29.75 139.444 29.75C137.075 29.75 135.199 29.0589 133.817 27.6768C132.484 26.2453 131.744 24.3203 131.744 21.951ZM135.495 21.8029C135.495 23.3824 135.841 24.6164 136.581 25.4556C137.322 26.2947 138.358 26.739 139.691 26.739C140.974 26.739 142.011 26.3441 142.702 25.4556C143.393 24.6164 143.739 23.3824 143.739 21.7042C143.739 20.0752 143.393 18.8412 142.702 17.9527C142.011 17.1136 140.974 16.6694 139.74 16.6694C138.408 16.6694 137.42 17.1136 136.68 18.0021C135.89 18.9399 135.495 20.174 135.495 21.8029ZM159.386 17.0149H154.006V29.3551H150.353V17.0149H147.786V14.0532H150.353V11.9307C150.353 10.3512 150.896 9.01842 151.933 7.98185C152.969 6.94527 154.302 6.45166 155.931 6.45166C156.375 6.45166 156.77 6.50102 157.115 6.50102C157.461 6.50102 157.757 6.59974 158.004 6.69846V9.8082C157.905 9.75884 157.658 9.66011 157.362 9.56139C157.066 9.46267 156.721 9.41331 156.326 9.41331C155.585 9.41331 154.993 9.66011 154.598 10.1044C154.203 10.5486 154.006 11.289 154.006 12.1775V14.0039H159.386V10.5486L162.989 9.46267V14.0039H166.642V16.9655H162.989V24.1228C162.989 25.0607 163.187 25.7024 163.483 26.0973C163.828 26.4922 164.371 26.6896 165.112 26.6896C165.309 26.6896 165.556 26.6402 165.852 26.5415C166.148 26.4428 166.395 26.3441 166.593 26.196V29.1576C166.346 29.3057 166 29.4044 165.457 29.5032C164.914 29.6019 164.421 29.6512 163.878 29.6512C162.348 29.6512 161.212 29.2564 160.472 28.4666C159.732 27.6768 159.337 26.4428 159.337 24.8139L159.386 17.0149Z" fill="#737373"/>
<path id="Vector_2" d="M16.8814 0.92334H0V17.8047H16.8814V0.92334Z" fill="#F25022"/>
<path id="Vector_3" d="M35.5396 0.92334H18.6582V17.8047H35.5396V0.92334Z" fill="#7FBA00"/>
<path id="Vector_4" d="M16.8814 19.5815H0V36.4629H16.8814V19.5815Z" fill="#00A4EF"/>
<path id="Vector_5" d="M35.5396 19.5815H18.6582V36.4629H35.5396V19.5815Z" fill="#FFB900"/>
</g>
</svg>
