<svg width="144" height="21" viewBox="0 0 144 21" fill="none" xmlns="http://www.w3.org/2000/svg">
<path id="Vector" d="M87.5554 6.57309L87.5981 6.50755L87.5524 6.57309C86.779 6.06246 85.6604 5.82552 84.5651 5.82552C82.0824 5.82768 80.308 7.00881 79.1407 8.66815C77.9803 10.3325 77.4337 12.4766 77.4337 14.3851C77.4337 15.7643 77.6493 17.0506 78.5231 18.2115C78.9536 18.7783 79.9973 20.1402 83.3709 20.1446C85.7136 20.1431 86.8232 19.559 87.4244 19.2213L87.5247 19.0909C87.6423 18.5969 88.0376 16.3534 88.1985 15.7909L88.0772 15.7016C86.8928 16.6048 85.6013 17.2645 84.1346 17.2645C83.1508 17.2645 82.4028 17.0398 81.8982 16.6062C81.3951 16.1763 81.1488 15.5403 81.1488 14.7524C81.1488 14.4622 81.1735 14.1971 81.1967 13.9069L81.2042 13.8385L81.273 13.8363C83.5663 13.7801 84.735 13.7499 86.6555 13.7499C87.2829 13.7499 87.9904 13.7528 88.8447 13.7593L88.9929 13.6599C89.1838 12.8036 89.3905 11.8241 89.3905 10.6192C89.3905 9.54968 89.2722 7.64835 87.5554 6.57309ZM86.0363 11.2587L86.0236 11.3214L83.776 11.3487L81.5538 11.3768L81.574 11.3048L81.5845 11.2731C81.6294 11.1233 81.6781 10.9584 81.7342 10.7906C81.887 10.3196 82.1056 9.80679 82.4927 9.3365C82.5608 9.25656 82.6319 9.17445 82.7076 9.09811C83.3964 8.37359 84.0485 8.26124 84.4707 8.26124C85.066 8.26124 85.5017 8.49026 85.7817 8.83092C85.8289 8.8907 85.8686 8.94903 85.9075 9.01601C86.046 9.24287 86.1306 9.50071 86.1613 9.77078C86.1763 9.86729 86.1815 9.96884 86.1815 10.0661C86.1823 10.4708 86.1074 10.8684 86.0363 11.2587ZM77.3094 8.82444L77.1567 8.96992L74.9435 8.91518L73.9185 13.5576C73.777 14.1395 73.4641 15.5922 73.4641 16.0603C73.4611 16.4975 73.6325 16.7956 73.8721 16.9728C74.1087 17.1521 74.4052 17.2112 74.6702 17.2119C75.2857 17.2119 75.5006 17.047 75.9108 16.8965L75.9835 16.9613L75.4392 19.6354L75.252 19.8104C74.4943 19.9645 73.9305 20.0913 73.1332 20.0913C71.0742 20.0797 69.5881 19.415 69.5798 17.1068C69.5798 16.0265 70.0335 14.0596 70.3712 12.5976L71.188 8.9123L69.4503 8.9692L69.3455 8.82372L69.8539 6.22667L70.0118 6.14313H71.7773L72.4833 2.72289L72.6211 2.57309C74.3887 2.13808 74.8986 1.92851 76.5091 1.4186L76.5944 1.51079L76.0606 3.71389L75.5073 6.19498L77.7744 6.128L77.8335 6.24179L77.3094 8.82444ZM104.603 4.44345L104.481 4.57381L98.6399 4.56012L97.6898 9.24792L102.801 9.09955L102.877 9.21623C102.456 10.5637 102.359 10.9447 102.076 12.1201L101.946 12.2389L97.0856 12.2288L96.447 15.4813L95.6384 19.7052L95.5306 19.8025L91.3446 19.9062L91.2937 19.8025L92.0192 16.2065L93.1295 11.1298C93.9665 7.18526 94.2061 5.92562 94.9975 1.62818L95.1233 1.51007H101.239L105.124 1.41212L105.199 1.51007L104.603 4.44345ZM112.853 6.72505C112.041 6.17409 110.744 5.89105 108.965 5.89105C108.087 5.89105 107.201 5.97244 106.312 6.13448C105.517 6.27996 105.023 6.40312 104.603 6.51907L104.488 6.63142L103.911 9.4755L104.097 9.58353C104.468 9.41932 105.011 9.21767 105.729 8.97352C106.462 8.72505 107.138 8.60045 107.747 8.60045C108.639 8.60045 109.319 8.71785 109.781 8.96055C110.257 9.20686 110.598 9.74774 110.596 10.3426C110.596 10.4895 110.583 10.6185 110.562 10.7351C110.539 10.8446 110.525 10.9253 110.519 10.9714L110.509 11.0319C110.509 11.0319 110.221 11.0513 109.915 11.0765C109.712 11.0952 109.455 11.1233 109.157 11.1565C108.67 11.2069 108.109 11.2731 107.619 11.3523C106.445 11.5403 103.142 12.0351 102.151 14.1633C101.111 15.9069 101.289 18.2202 102.309 19.3459C102.669 19.7441 103.218 20.1186 103.96 20.2627L103.959 20.2648C103.991 20.2756 104.105 20.2893 104.13 20.2951C106.986 20.72 109.036 18.3261 109.036 18.3261L108.729 19.8018L108.855 19.9055L112.064 19.8018L112.197 19.6901L114.086 10.5637C114.125 10.3714 114.158 10.1438 114.181 9.88529C114.202 9.62314 114.216 9.41068 114.216 9.2544C114.214 8.08623 113.664 7.27528 112.853 6.72505ZM109.549 15.85C109.549 15.85 108.782 17.0095 107.677 17.4251C106.568 17.8378 105.768 17.5122 105.455 17.0996C105.202 16.7769 104.676 15.7585 105.674 14.6127C106.686 13.4553 110.031 13.3812 110.031 13.3812L109.549 15.85ZM125.129 5.70524L124.343 9.63034L124.178 9.79095C123.954 9.75206 123.668 9.72037 123.329 9.72037C122.27 9.72037 120.763 10.0473 119.585 11.5497L119.572 11.5619L117.949 19.7067L117.834 19.8039L114.31 19.9069L114.218 19.8176L116.991 6.14457L117.141 6.00125L120.63 5.67643L120.768 5.81976L120.366 7.80031L120.537 7.65051C121.266 7.01457 121.913 6.57525 122.636 6.17914C123.352 5.78302 124.07 5.58641 124.791 5.58641C124.861 5.58641 124.932 5.58641 125.007 5.58929L125.129 5.70524ZM144 9.14565C144 9.97172 143.806 10.8295 143.616 11.6642L141.979 19.706L141.853 19.8032L138.163 19.9285L138.072 19.8032C138.072 19.8032 139.962 10.9202 139.962 10.4787C139.962 10.0761 139.741 8.99728 138.567 8.99728C137.643 8.99728 136.687 9.89538 136.687 9.89538L134.694 19.7067L134.572 19.8039L132.984 19.8572L131.562 19.9033L130.86 19.9256L130.817 19.8702L130.771 19.8032C130.771 19.8032 131.056 18.4514 131.41 16.7769H131.4C131.951 14.1582 132.656 10.7481 132.656 10.4787C132.656 10.0761 132.436 8.99728 131.26 8.99728C130.338 8.99728 129.382 9.89538 129.382 9.89538L127.389 19.7067L127.264 19.8039L126.694 19.8226L123.554 19.9242L123.474 19.8039L126.239 6.14457L126.379 6.00989L130.058 5.67643L130.207 5.81976L129.817 7.74269C129.817 7.74269 131.593 5.87017 133.857 5.82696C135.97 5.78879 136.412 7.74269 136.412 7.74269C136.412 7.74269 138.514 5.7823 140.757 5.82696C141.891 5.8356 143.994 6.31669 144 9.14565ZM66.9579 6.72505C66.147 6.17409 64.8518 5.89105 63.0736 5.89105C62.1924 5.89105 61.3082 5.97244 60.4217 6.13448C59.6251 6.27996 59.1317 6.40312 58.7102 6.51907L58.5956 6.63142L58.0184 9.4755L58.2048 9.58353C58.5754 9.41932 59.1197 9.21767 59.8355 8.97352C60.57 8.72505 61.2445 8.60045 61.854 8.60045C62.7464 8.60045 63.4218 8.71785 63.8889 8.96055C64.3629 9.20686 64.702 9.74774 64.702 10.3426C64.702 10.4895 64.6916 10.6185 64.6706 10.7351C64.6459 10.8446 64.6324 10.9253 64.6264 10.9714L64.6174 11.0319C64.6174 11.0319 64.3299 11.0513 64.0237 11.0765C63.8223 11.0952 63.5618 11.1233 63.266 11.1565C62.7779 11.2069 62.2163 11.2731 61.7289 11.3523C60.5527 11.5403 57.251 12.0351 56.2589 14.1633C55.2197 15.9069 55.3979 18.2202 56.4184 19.3459C56.7755 19.7441 57.3258 20.1186 58.0685 20.2627L58.067 20.2648C58.0985 20.2756 58.213 20.2893 58.237 20.2951C61.0948 20.72 63.144 18.3261 63.144 18.3261L62.837 19.8018L62.9621 19.9055L66.1732 19.8018L66.3058 19.6901L68.1925 10.5637C68.2337 10.3714 68.2659 10.1438 68.2921 9.88529C68.3108 9.62314 68.325 9.41068 68.325 9.2544C68.322 8.08623 67.7747 7.27528 66.9579 6.72505ZM63.6561 15.85C63.6561 15.85 62.8909 17.0095 61.7843 17.4251C60.6763 17.8378 59.8774 17.5122 59.5607 17.0996C59.3099 16.7769 58.785 15.7585 59.7853 14.6127C60.7938 13.4553 64.142 13.3812 64.142 13.3812L63.6561 15.85ZM55.9213 8.82444L55.767 8.96992L53.5561 8.91518L52.5319 13.5576C52.3881 14.1395 52.0737 15.5922 52.0737 16.0603C52.0729 16.4975 52.2429 16.7956 52.4817 16.9728C52.7213 17.1521 53.0163 17.2112 53.2806 17.2119C53.8968 17.2119 54.1124 17.047 54.5212 16.8965L54.5946 16.9613L54.051 19.6354L53.8638 19.8104C53.1091 19.9645 52.5424 20.0913 51.7435 20.0913C49.6891 20.0797 48.1999 19.415 48.1917 17.1068C48.1917 16.0265 48.6469 14.0596 48.9831 12.5976L49.7991 8.9123L48.0606 8.9692L47.9558 8.82372L48.4657 6.22667L48.6229 6.14313H50.3876L51.0944 2.72289L51.2329 2.57309C52.9976 2.13808 53.5089 1.92851 55.1224 1.4186L55.2048 1.51079L54.6709 3.71389L54.1221 6.19642L56.3847 6.12944L56.4468 6.24323L55.9213 8.82444ZM47.6092 2.51691L46.9368 5.84712L46.7886 5.8925C46.5213 5.53095 46.3596 5.38907 45.9875 5.11252C45.1609 4.50035 44.1801 4.15393 43.1791 4.15393C42.3945 4.15393 41.7424 4.38943 41.2901 4.78194C40.8342 5.17301 40.5751 5.72973 40.5751 6.35126C40.5774 7.52663 41.4137 8.09991 42.8998 8.95623L43.4778 9.27168C44.7229 10.0567 46.6568 11.2609 46.6568 13.994C46.6523 17.1003 44.5837 20.2166 39.6205 20.2238C38.4039 20.2238 37.2127 20.0142 36.0664 19.603C35.293 19.3178 34.9202 19.0707 34.4522 18.7373L34.4133 18.5234L35.0722 15.2746L35.2197 15.227C35.5184 15.5987 35.8927 15.9026 36.4528 16.2591C37.6485 17.0261 38.7955 17.1082 39.2844 17.1082C41.0363 17.1068 42.4139 16.1446 42.4139 14.6501C42.4124 13.312 41.3126 12.6415 40.1641 11.9904L39.3697 11.5194C38.1194 10.733 36.3861 9.66347 36.3809 6.98216C36.3809 5.95083 36.6894 4.47082 37.6387 3.25872C38.8906 1.66491 40.8589 1.09235 42.8414 1.09235C45.3938 1.09235 46.8537 1.96163 47.5381 2.38295L47.6092 2.51691ZM11.7194 8.38295C12.7249 8.98 14.1377 9.35955 15.728 9.35955C17.316 9.35955 18.7422 8.98 19.7627 8.38295C20.7869 7.78663 21.3904 6.98144 21.3926 6.1316C21.3904 5.2796 20.7907 4.48234 19.771 3.89105C18.7542 3.30049 17.3317 2.92887 15.7392 2.92598C14.1497 2.92887 12.7347 3.30049 11.7247 3.89105C10.7139 4.48306 10.1202 5.27744 10.118 6.12944C10.1202 6.9836 10.7124 7.78663 11.7194 8.38295ZM11.9732 12.9894C10.9565 12.3981 9.53322 12.0257 7.94372 12.0257C6.35273 12.0257 4.93769 12.3981 3.92844 12.9865C2.91694 13.5785 2.32322 14.37 2.32097 15.222C2.32322 16.0769 2.91395 16.8799 3.9232 17.4791C4.92795 18.0718 6.34075 18.4521 7.93174 18.455C9.52273 18.4514 10.949 18.0718 11.9687 17.4762C12.9907 16.8799 13.5942 16.0769 13.5972 15.2249C13.5934 14.3758 12.993 13.5814 11.9732 12.9894ZM27.532 12.9894C26.5138 12.3981 25.0897 12.0257 23.4995 12.0257C21.91 12.0257 20.4927 12.3981 19.4857 12.9865C18.4742 13.5778 17.882 14.37 17.8805 15.2241C17.882 16.0761 18.4712 16.8792 19.4812 17.4784C20.4867 18.0711 21.8988 18.4514 23.4883 18.4543C25.0778 18.4507 26.5055 18.0711 27.5268 17.4755C28.5487 16.8792 29.1522 16.0761 29.1537 15.2241C29.1522 14.3757 28.5517 13.5814 27.532 12.9894ZM23.4823 9.79383C22.7635 9.79383 22.0695 9.85937 21.4099 9.9782C22.8511 8.98864 23.7383 7.62674 23.7383 6.12368C23.7383 3.09955 20.1685 0.693359 15.7362 0.693359C11.3046 0.69408 7.77152 3.10027 7.77152 6.1244C7.77152 7.62962 8.64226 8.99152 10.0693 9.98108C9.39695 9.85937 8.69168 9.79383 7.96394 9.79383C3.53237 9.79383 0 12.2007 0 15.222C0 18.2411 3.51366 20.6934 7.94672 20.6934C11.7194 20.6934 14.8819 18.9188 15.7429 16.5277C16.5822 18.9188 19.6901 20.6934 23.4636 20.6934C27.8959 20.6934 31.4859 18.2418 31.4859 15.222C31.4859 12.2007 27.9123 9.79383 23.4823 9.79383ZM9.21652 6.12152C9.22176 4.75962 10.2969 3.83992 10.9273 3.4114C12.1881 2.54932 13.8966 2.08479 15.737 2.08479C17.5833 2.08479 19.2978 2.55148 20.5683 3.4114C21.204 3.8428 22.2918 4.76394 22.2971 6.12152C22.2761 8.39159 19.2461 10.1986 15.7175 10.2036C13.8847 10.2036 12.1836 9.73189 10.928 8.86333C9.83419 8.10928 9.21652 7.13772 9.21652 6.12152ZM7.94672 19.3012C6.11165 19.3012 4.4121 18.8288 3.15278 17.9588C2.06417 17.2076 1.44499 16.236 1.44499 15.222C1.45098 13.8601 2.52537 12.9382 3.15353 12.509C4.41584 11.6527 6.12363 11.1853 7.96469 11.1824C9.81173 11.1853 11.5263 11.6519 12.7968 12.5126C13.4332 12.9433 14.5226 13.863 14.5286 15.222C14.5068 17.4892 11.4746 19.2962 7.94672 19.3012ZM15.7452 13.9199C15.3978 12.957 14.676 12.097 13.6915 11.4164C14.3376 11.5324 15.0152 11.5943 15.7137 11.5943C16.4325 11.5943 17.1265 11.5295 17.7884 11.41C16.8069 12.0913 16.0859 12.9519 15.7452 13.9199ZM23.4628 19.3012C21.63 19.3012 19.9289 18.8288 18.6711 17.9588C17.5803 17.2076 16.9596 16.236 16.9596 15.222C16.9641 13.8601 18.0422 12.9404 18.6726 12.509C19.9319 11.6527 21.6412 11.1853 23.4815 11.1824C25.3286 11.1853 27.0423 11.6519 28.3166 12.5126C28.9523 12.9433 30.0372 13.8651 30.0402 15.222C30.0229 17.4892 26.9914 19.2962 23.4628 19.3012Z" fill="#ED1D24"/>
</svg>
