<svg width="127" height="48" viewBox="0 0 127 48" fill="none" xmlns="http://www.w3.org/2000/svg">
<g id="Group 4">
<g id="g7502">
<path id="path2380" d="M86.1767 0L86.7743 0.128884L86.9578 0.33588L86.907 0.808455L86.825 4.50704L86.618 4.53435L86.0439 3.12443L85.8369 1.79654L85.915 0.468639" fill="#F35C17"/>
<path id="path2382" d="M89.6411 7.50641L91.3869 6.25271L92.3242 5.81138L93.2382 5.20993L94.0974 5.00293L94.3317 5.67859L93.6248 6.20194L92.0626 7.35018L91.5666 7.42826L90.7894 7.71337L90.059 7.84226" fill="#F35C17"/>
<path id="path2384" d="M91.543 10.0843L91.6211 9.64299L94.2027 9.40866L95.6868 9.38135L96.3663 9.58834L96.753 9.74457L96.7257 10.1898L96.4406 10.4749L94.8276 10.5022L93.1326 10.3968L92.0898 10.2405" fill="#F35C17"/>
<path id="path2386" d="M89.1215 13.5522L89.3012 13.3179L89.5355 13.4975L89.5121 14.2552L90.2932 15.794L90.6565 16.8095L90.7619 17.1727L90.7853 18.5553L90.4221 18.6061L89.8753 17.8757L89.5121 18.0085L89.2504 17.8249L89.2231 16.7821L89.0669 16.6259L89.0161 14.3607" fill="#F35C17"/>
<path id="path2388" d="M83.103 15.1652L84.4817 13.4975L84.9503 13.3413L85.2901 13.3686L84.923 14.4895L84.1185 16.1572L83.517 16.7548L83.1264 16.8602L82.9702 16.7313" fill="#F35C17"/>
<path id="path2390" d="M75.5693 13.1619L76.6941 12.7167L78.8031 12.4042L79.9513 12.3261L80.1818 12.0918V12.6659L79.221 13.1893L77.0807 14.0485L75.8075 14.4117L75.2334 13.9938L75.2607 13.2908" fill="#F35C17"/>
<path id="path2392" d="M77.4204 6.30366L79.2717 6.01855L80.9393 6.56924L82.3219 7.24491L82.6578 7.50658L82.5289 7.68624L80.8612 7.71355L79.2951 7.45187L78.0219 6.9832L77.397 6.54187" fill="#F35C17"/>
<path id="path2394" d="M83.9857 6.51463L83.2593 7.29575L83.1538 8.36587L83.31 9.09622L84.2474 11.0763L84.509 11.2833L84.6653 11.6505L85.7315 12.248L87.0086 12.2753L88.9887 12.041L89.5629 11.5723L89.641 11.2325L89.7972 10.7092L89.6644 9.90464L89.4066 8.47129L88.235 7.11606L87.0086 6.46383L85.1612 6.22949L83.9857 6.51463ZM85.0558 7.50665L86.8016 7.74098L87.2703 7.99875L87.8952 8.99077L88.2076 10.2132L88.1061 11.0217L86.9813 11.3107L85.419 10.4749L84.7707 9.51021L84.3528 8.70566L84.5872 7.84253" fill="#F35C17"/>
</g>
<g id="g6691">
<path id="path2396" d="M1.97634 35.1539C2.9957 35.6617 4.91725 36.3881 6.62398 36.3881C8.07686 36.3881 8.83845 35.6617 8.83845 34.7907C8.83845 33.9198 8.25652 33.3027 6.62398 32.5059C4.58918 31.4866 2.88634 29.9986 2.88634 27.7841C2.88634 24.0855 6.11626 21.6523 10.6858 21.6523C12.7557 21.6523 14.3883 22.0898 15.2241 22.5623L13.9899 26.2648C13.2674 25.9368 11.9942 25.5032 10.4358 25.5032C9.05716 25.5032 8.14716 26.0813 8.14716 27.0616C8.14716 27.7841 8.8736 28.4012 10.2874 29.0573C12.248 30.0337 14.2828 31.4866 14.2828 33.9549C14.2828 38.0206 10.8342 40.2351 6.11626 40.1999C3.90179 40.1647 1.76154 39.5829 0.707031 38.8213" fill="#F35C17"/>
<path id="path2398" d="M34.6033 22.0508L32.3537 34.0292C31.9163 36.2788 31.6273 38.2043 31.3734 39.8017H26.7648L27.089 36.935L27.0187 36.8959C25.2065 39.2197 23.0623 40.2 20.9221 40.2C18.0554 40.2 16.3486 38.6026 16.3486 35.2282C16.3486 34.2831 16.458 33.1934 16.7119 31.9592L18.5982 22.0508H23.8239L22.0117 31.5609C21.8633 32.3576 21.7579 33.2676 21.7579 33.9198C21.7579 35.0446 22.2304 35.9546 23.5349 35.9546C25.3119 35.9546 27.1632 33.8105 27.8154 30.2916L29.3776 22.0508" fill="#F35C17"/>
<path id="path2400" d="M34.5645 39.8016L36.8141 27.8193C37.2515 25.5735 37.5444 23.652 37.7592 22.0507H42.3717L42.0436 24.9916H42.1139C43.7855 22.7069 46 21.6523 48.3199 21.6523C51.2256 21.6523 52.8933 23.4333 52.8933 26.5187C52.8933 27.3115 52.7488 28.6199 52.6043 29.4908L50.6437 39.8016H45.418L47.2693 29.9634C47.3786 29.3463 47.4489 28.655 47.4489 28.0028C47.4489 26.7335 47.0154 25.8665 45.6719 25.8665C43.9652 25.8665 42.0085 28.0028 41.2469 31.924L39.794 39.8016" fill="#F35C17"/>
</g>
<g id="g7496">
<path id="path2402" d="M60.5484 22.0508L60.5875 29.6003C60.6227 31.596 60.5523 33.2676 60.443 35.2282H60.5133C61.1304 33.3379 61.931 31.5609 62.6574 29.7799L66.1764 22.0508H70.4217L70.8591 29.5261C70.9685 31.6312 71.0388 33.3379 70.9294 35.2282H71.0388C71.6207 33.2676 72.2378 31.5257 72.9603 29.4558L76.0106 22.0508H81.2753L72.6362 39.8016H67.7386L67.2269 33.6269C67.0824 31.7796 67.0824 30.0728 67.0824 27.9677H66.9731C66.0318 30.4712 65.6296 31.7796 64.8719 33.377L61.8568 39.8016H56.9592L55.2876 22.0508" fill="#F35C17"/>
<path id="path2404" d="M79.4199 39.8016L82.7982 22.0508H87.9849L84.6456 39.8016" fill="#F35C17"/>
<path id="path2406" d="M87.9497 39.8016L90.1993 27.8193C90.6328 25.5735 90.9258 23.652 91.1445 22.0507H95.7531L95.425 24.9916H95.4992C97.1669 22.7069 99.3813 21.6523 101.705 21.6523C104.607 21.6523 106.279 23.4333 106.279 26.5187C106.275 27.3115 106.13 28.6199 105.986 29.4908L104.025 39.8016H98.7994L100.651 29.9634C100.76 29.3463 100.834 28.655 100.834 28.0028C100.834 26.7335 100.397 25.8665 99.0532 25.8665C97.3465 25.8665 95.3898 28.0028 94.6282 31.924L93.1754 39.8016" fill="#F35C17"/>
<path id="path2408" d="M120.648 25.9758C120.249 25.7923 119.484 25.6478 118.761 25.6478C115.602 25.6478 113.352 29.1667 113.352 32.5059C113.352 34.3181 114.153 35.6265 115.746 35.6265C117.453 35.6265 119.16 33.7011 119.742 30.725L120.648 25.9758ZM108.454 42.2699C109.435 42.8479 111.575 43.2502 113.098 43.2502C115.711 43.2502 117.636 42.0863 118.398 38.5283L118.687 37.0052H118.617C117.238 38.8213 115.641 39.6571 113.536 39.6571C110.013 39.6571 107.872 36.7865 107.837 33.3027C107.798 27.4599 112.012 21.6523 119.742 21.6523C122.245 21.6523 124.42 22.1249 126.307 22.8865L123.624 37.5129C123.007 40.7819 121.991 43.6837 119.886 45.3905C117.961 46.9175 115.383 47.3862 113.028 47.3862C110.63 47.3862 108.454 46.9527 107.22 46.2614" fill="#F35C17"/>
</g>
</g>
</svg>
