<svg width="231" height="14" viewBox="0 0 231 14" fill="none" xmlns="http://www.w3.org/2000/svg">
<g id="Group">
<path id="Vector" d="M11.346 1.9502H7.06452V12.8017H5.21903V1.9502H0.9375V0.326172H11.346V1.9502Z" fill="#002A5A"/>
<path id="Vector_2" d="M24.5598 0.178223C28.6937 0.178223 31.2773 3.131 31.2773 6.60052C31.2773 9.99621 28.7675 13.0228 24.5598 13.0228C20.4997 13.0228 17.916 9.99621 17.916 6.60052C17.916 3.131 20.5735 0.178223 24.5598 0.178223ZM24.5598 11.325C27.3649 11.325 29.4319 9.25802 29.4319 6.60052C29.4319 3.8692 27.3649 1.87607 24.5598 1.87607C21.7546 1.87607 19.6877 3.8692 19.6877 6.60052C19.7615 9.25802 21.8284 11.325 24.5598 11.325Z" fill="#002A5A"/>
<path id="Vector_3" d="M51.3563 12.8017H49.5109V3.13131L45.6722 7.92958H45.377L41.5384 3.13131H41.4645V12.8017H39.6929V0.326172H41.3907L45.5246 5.49353L49.6585 0.326172H51.3563V12.8017Z" fill="#002A5A"/>
<path id="Vector_4" d="M73.0589 12.8017H71.2872V3.13131H71.2134L67.3748 7.92958H67.0795L63.2409 3.13131V12.8017H61.4692V0.326172H63.0933L67.2272 5.49353L71.4349 0.326172H73.0589V12.8017Z" fill="#002A5A"/>
<path id="Vector_5" d="M89.6684 0.326172H91.883L87.2324 6.23173V12.8017H85.4607V6.23173L80.8101 0.326172H82.9508L86.3465 4.6077L89.6684 0.326172Z" fill="#002A5A"/>
<path id="Vector_6" d="M140.309 12.8017H138.537V7.41284H131.524V12.8017H129.752V0.326172H131.524V5.78881H138.537V0.326172H140.309V12.8017Z" fill="#002A5A"/>
<path id="Vector_7" d="M149.462 0.326172H147.69V12.8017H149.462V0.326172Z" fill="#002A5A"/>
<path id="Vector_8" d="M158.616 11.1776H164.226V12.8017H156.844V0.326172H158.616V11.1776Z" fill="#002A5A"/>
<path id="Vector_9" d="M176.037 1.9502H171.165V5.41971H176.037V7.04374H171.165V12.8017H169.394V0.326172H176.037V1.9502Z" fill="#002A5A"/>
<path id="Vector_10" d="M184.084 0.326172H182.312V12.8017H184.084V0.326172Z" fill="#002A5A"/>
<path id="Vector_11" d="M201.136 11.9156C199.438 12.6538 198.109 12.9491 196.411 12.9491C192.573 12.9491 189.768 10.2916 189.768 6.60061C189.768 2.90963 192.647 0.104492 196.485 0.104492C197.962 0.104492 198.995 0.325951 200.914 1.13796V2.90963C199.438 2.09762 197.962 1.6547 196.411 1.6547C193.68 1.6547 191.613 3.72165 191.613 6.45297C191.613 9.25811 193.68 11.1774 196.633 11.1774C197.592 11.1774 198.478 10.956 199.364 10.6607V8.29845H197.002V6.67443H201.21V11.9156H201.136Z" fill="#002A5A"/>
<path id="Vector_12" d="M215.014 1.9502H209.773V5.71499H214.866V7.33902H209.773V11.1776H215.235V12.8017H208.001V0.326172H215.014V1.9502Z" fill="#002A5A"/>
<path id="Vector_13" d="M224.463 0.326172C226.973 0.326172 228.523 1.65492 228.523 3.79569C228.523 5.27208 227.785 6.30555 226.456 6.82228C227.563 7.56048 228.301 8.74159 229.261 10.2918C229.778 11.1776 230.073 11.5467 230.959 12.7278H228.818L227.194 10.1442C225.57 7.56048 224.832 7.2652 223.872 7.2652H223.134V12.654H221.362V0.326172H224.463ZM223.134 5.78881H224.315C226.234 5.78881 226.751 4.82916 226.751 3.79569C226.751 2.61458 226.013 1.9502 224.315 1.9502H223.134V5.78881Z" fill="#002A5A"/>
<path id="Vector_14" d="M119.639 3.42627H110.042V9.70092H119.639V3.42627Z" fill="#DD052B"/>
<path id="Vector_15" d="M110.043 3.42627H100.446V9.6271H110.043V3.42627Z" fill="white"/>
<path id="Vector_16" d="M119.639 0.326172H100.446V3.42659H119.639V0.326172Z" fill="#002A5A"/>
<path id="Vector_17" d="M119.639 9.70117H100.446V12.8016H119.639V9.70117Z" fill="#002A5A"/>
</g>
</svg>
