<svg width="79" height="28" viewBox="0 0 79 28" fill="none" xmlns="http://www.w3.org/2000/svg">
<path id="Vector" d="M77.1786 13.8852H72.6098C72.1671 12.7638 71.6712 11.8924 69.1111 11.8924C67.3402 11.8924 66.5813 12.6198 66.5813 13.3498C66.5813 14.1479 67.2112 14.8197 69.1617 15.2516L73.3004 16.3529C76.0098 17.0752 77.3228 19.2221 77.3228 21.4902C77.3228 22.753 77.0495 24.2685 75.8504 25.5313C74.9549 26.4633 73.5989 27.6934 69.1035 27.6934C62.9207 27.6934 60.8893 23.7911 60.8893 21.4346H65.6959C66.1689 23.1572 67.3529 23.8113 69.6955 23.8113C71.3196 23.8113 72.7135 23.2329 72.7135 21.9928C72.7135 20.8133 71.7016 20.3688 70.3987 20.0126L67.1277 19.1311C65.5517 18.6513 64.2337 18.2674 63.3027 17.4819C60.8665 15.4209 61.0436 11.7005 63.6923 9.76576C65.1596 8.69485 66.6623 8.13667 69.0478 8.13667C71.8508 8.13667 73.4522 8.9348 74.712 9.80365C75.8302 10.5614 77.1583 12.4254 77.1583 13.8953M0 0.703464C0.0379467 0.867637 9.56257 27.4761 9.56257 27.4761H15.247L24.0026 5.32554H78.3929L78.8052 0.695888H19.836L12.5705 19.0503L6.04112 0.693359H0.0126487M47.0236 17.891L54.1221 27.461H58.5644V8.53574H53.4492V18.8281L47.0236 8.53574H42.1158V27.461H47.0236V17.891ZM78.9874 26.4785C78.9874 26.2787 78.928 26.0833 78.8168 25.9172C78.7056 25.7511 78.5476 25.6216 78.3627 25.5451C78.1778 25.4686 77.9743 25.4486 77.778 25.4876C77.5817 25.5266 77.4014 25.6228 77.2599 25.7641C77.1184 25.9054 77.022 26.0854 76.983 26.2814C76.9439 26.4774 76.964 26.6805 77.0406 26.8651C77.1171 27.0497 77.2468 27.2075 77.4132 27.3185C77.5797 27.4295 77.7753 27.4888 77.9754 27.4888C78.1094 27.4904 78.2423 27.4655 78.3666 27.4155C78.4908 27.3655 78.6039 27.2914 78.6992 27.1974C78.7945 27.1034 78.8701 26.9914 78.9218 26.868C78.9734 26.7446 79 26.6122 79 26.4785H78.9874ZM78.871 26.4785C78.8705 26.6543 78.8178 26.8261 78.7195 26.972C78.6212 27.1179 78.4818 27.2315 78.3189 27.2983C78.156 27.3651 77.9769 27.3822 77.8043 27.3474C77.6317 27.3126 77.4732 27.2275 77.349 27.1028C77.2249 26.9781 77.1405 26.8195 77.1066 26.6469C77.0728 26.4744 77.0909 26.2957 77.1588 26.1334C77.2266 25.9711 77.3412 25.8326 77.4879 25.7353C77.6346 25.6381 77.8069 25.5864 77.983 25.5869C78.1012 25.5849 78.2186 25.6065 78.3283 25.6505C78.438 25.6945 78.5377 25.76 78.6217 25.8431C78.7056 25.9261 78.772 26.0252 78.817 26.1343C78.862 26.2435 78.8847 26.3605 78.8836 26.4785H78.871ZM78.4612 26.2689C78.4607 26.2167 78.449 26.1653 78.4268 26.1182C78.4047 26.071 78.3725 26.0292 78.3326 25.9956C78.2927 25.962 78.246 25.9375 78.1957 25.9236C78.1454 25.9097 78.0927 25.9069 78.0412 25.9152H77.5656V26.9862H77.8034V26.6427H77.9906L78.2183 26.9862H78.494L78.2411 26.6022C78.3112 26.5801 78.3721 26.5353 78.4142 26.475C78.4563 26.4148 78.4772 26.3423 78.4738 26.2689H78.4612ZM78.2208 26.2815C78.2211 26.3043 78.2164 26.327 78.207 26.3479C78.1976 26.3687 78.1837 26.3873 78.1663 26.4022C78.149 26.4171 78.1286 26.4281 78.1065 26.4343C78.0844 26.4405 78.0613 26.4418 78.0387 26.4381H77.8009V26.1249H78.0311C78.0553 26.1181 78.0807 26.1171 78.1053 26.122C78.13 26.1269 78.1531 26.1375 78.1728 26.1531C78.1925 26.1686 78.2083 26.1885 78.2189 26.2113C78.2294 26.234 78.2344 26.259 78.2335 26.284L78.2208 26.2815ZM19.9549 27.461H25.4066L26.4185 24.5008H33.636L34.6808 27.461H40.049L33.1781 8.53574H27.3975L19.9549 27.461ZM27.949 21.076L30.0614 14.7844L32.1459 21.076H27.9364H27.949Z" fill="#D51920"/>
</svg>
